<svg height='300px' width='300px'  fill="#000000" xmlns="http://www.w3.org/2000/svg" xmlns:xlink="http://www.w3.org/1999/xlink" version="1.1" x="0px" y="0px" viewBox="0 0 288 288" style="enable-background:new 0 0 288 288;" xml:space="preserve"><path d="M131.5,148.3L86.7,165l31.3,13.5H11.7c-2.2,0-3.9-1.5-3.9-3.3v-67.8c0-1.8,1.8-3.3,3.9-3.3H155l-79.9,27.4L131.5,148.3z"></path><path d="M279.3,107.1v68.4c0,1.7-1.6,3-3.6,3H167.2l-32.1-10.6l64.2-17.5l-69.2-20.4l68.6-26h77  C277.7,104.1,279.3,105.4,279.3,107.1z"></path><polygon points="148,76.5 137.4,76.5 135.7,28.5 149.7,28.5 "></polygon><polygon points="138.8,208.5 149.4,208.5 151.1,256.5 137.1,256.5 "></polygon><polygon points="165.3,207.4 171.5,201.3 200.2,228.1 192.1,236.1 "></polygon><polygon points="115.3,201.3 121.4,207.4 94.8,236 86.7,227.9 "></polygon><polygon points="121.6,77.5 115.4,83.6 86.7,56.9 94.8,48.8 "></polygon><polygon points="171.6,83.6 165.5,77.5 192.2,48.9 200.2,57 "></polygon></svg>