<?xml version="1.0" encoding="utf-8"?>
<!-- Svg Vector Icons : http://www.onlinewebfonts.com/icon -->
<!DOCTYPE svg PUBLIC "-//W3C//DTD SVG 1.1//EN" "http://www.w3.org/Graphics/SVG/1.1/DTD/svg11.dtd">
<svg version="1.1" xmlns="http://www.w3.org/2000/svg" xmlns:xlink="http://www.w3.org/1999/xlink" x="0px" y="0px" viewBox="0 0 1000 1000" enable-background="new 0 0 1000 1000" xml:space="preserve">
<metadata> Svg Vector Icons : http://www.onlinewebfonts.com/icon </metadata>
<g><g transform="translate(0.000000,511.000000) scale(0.100000,-0.100000)"><path d="M3099.7,4916.4c-310.9-84.4-477.7-424.1-350-712.4c22.6-51.5,129.7-187.4,240.9-308.8c469.4-504.4,844.1-1091.2,1089.1-1708.8c271.8-683.5,391.2-1311.5,391.2-2058.8c0-747.4-119.4-1375.3-391.2-2058.8c-245-619.7-625.9-1214.7-1087.1-1704.7c-226.5-242.9-284.1-347.9-284.1-520.9c0-389.1,401.5-636.2,755.6-463.2c191.5,94.7,642.4,615.6,1000.6,1159.1c560,848.2,903.8,1811.8,1033.5,2898.8c32.9,273.8,30.9,1097.4-2.1,1379.4c-98.8,864.7-310.9,1568.8-695.9,2322.3c-261.5,510.6-574.4,959.4-990.3,1422.6C3505.3,4902,3342.6,4982.3,3099.7,4916.4z"/><path d="M6665.6,4885.6c-131.8-26.8-257.4-121.5-463.2-345.9c-259.4-288.2-448.8-533.2-656.8-850.3C5284.1,3290,5294.4,3325,5380.9,3152c142.1-280,286.2-671.2,440.6-1190c12.3-39.1,24.7-18.5,82.3,133.8c107.1,280,352.1,753.5,533.2,1027.3c193.5,296.5,345.9,490,590.9,751.5c98.8,107.1,199.7,236.8,222.4,288.2c115.3,259.4-12.3,578.5-275.9,687.6C6879.7,4889.7,6756.2,4904.1,6665.6,4885.6z"/><path d="M1689.4,3574.1c-251.2-125.6-362.4-450.9-238.8-693.8c18.5-35,107.1-148.2,197.6-247.1c271.8-304.7,438.5-545.6,613.5-897.6c434.4-872.9,487.9-1990.9,135.9-2905c-177.1-457.1-405.6-825.6-751.5-1212.6c-181.2-201.8-224.4-271.8-240.9-401.5c-43.2-308.8,201.8-588.8,514.7-588.8c187.4,0,300.6,61.8,494.1,269.7C3060.6-2408.9,3478.5-1546.2,3635-590.9c49.4,306.8,51.5,1115.9,0,1428.8c-150.3,955.3-572.4,1824.1-1220.9,2520c-193.5,207.9-306.8,269.7-494.1,269.7C1827.3,3627.6,1769.7,3613.2,1689.4,3574.1z"/><path d="M7851.5,3537c-232.6-107.1-743.2-753.5-1012.9-1278.5c-218.2-424.1-376.8-897.7-459.1-1369.1c-57.6-325.3-78.2-942.9-43.2-1278.5c107-1031.5,545.6-1999.1,1249.7-2754.7c193.5-207.9,306.8-269.7,494.1-269.7c312.9,0,558,280,514.7,588.8c-16.5,129.7-59.7,199.7-240.9,403.5c-630,702.1-942.9,1455.6-980,2363.5c-39.1,996.5,286.2,1877.7,980,2651.8c181.2,203.8,224.4,273.8,240.9,403.5C8650.3,3403.2,8224.1,3712,7851.5,3537z"/><path d="M439.7,2299.7C235.9,2223.5,100,2025.8,100,1807.6c2.1-160.6,45.3-257.3,191.5-422.1C495.3,1157,610.6,957.3,709.4,662.9c55.6-164.7,57.6-195.6,57.6-535.3c0-339.7-2.1-370.6-57.6-535.3c-94.7-288.2-286.2-607.3-455-761.8c-90.6-82.4-154.4-238.8-154.4-382.9c0-387.1,409.7-640.3,755.6-463.2c183.2,92.7,535.3,541.5,702.1,891.5c191.5,401.5,277.9,794.7,277.9,1251.8c0,597.1-158.5,1122.1-479.7,1603.8c-152.4,226.5-391.2,485.9-502.4,541.5C746.5,2328.5,550.9,2340.8,439.7,2299.7z"/><path d="M9241.2,2270.8c-152.4-47.4-345.9-224.4-541.5-500.3c-728.8-1023.2-720.6-2386.2,18.5-3392.9c137.9-189.4,333.5-389.1,428.3-436.5c341.8-175,753.5,80.3,753.5,465.3c-2.1,160.6-45.3,257.3-191.5,422.1c-203.8,228.5-321.2,428.2-417.9,722.6c-53.5,164.7-57.7,197.7-59.7,525c0,387.1,18.5,485.9,146.2,765.9c82.4,185.3,183.2,337.6,331.5,502.4c146.2,164.7,189.4,261.5,191.5,422.1c0,224.4-137.9,420-347.9,492.1C9455.3,2291.4,9327.7,2295.5,9241.2,2270.8z"/><path d="M5802.9-1754.1c0-107.1-282.1-868.8-434.4-1169.4l-84.4-166.8l45.3-84.4c80.3-144.1,378.8-590.9,510.6-761.8c70-90.6,228.5-275.9,354.1-415.9c177.1-197.7,251.2-263.6,341.8-308.8c356.2-172.9,753.5,72.1,755.6,465.3c0,166.8-59.7,280-261.5,494.1c-234.7,247.1-397.4,452.9-595,751.5c-181.2,275.9-455,809.1-543.5,1060.3C5837.9-1737.7,5802.9-1684.2,5802.9-1754.1z"/></g></g>
</svg>